{"title":"Cosmos A Space Time Odyssey S01E06 HDTV x264 AAC [GWC].mp4","uid":9958754,"size":197271662,"categoryP":"video","categoryS":"tv_shows","magnet":"?xt=urn:btih:81c966101a2a9a981e60521f27966806d1553c4f&amp;dn=Cosmos+A+Space+Time+Odyssey+S01E06+HDTV+x264+AAC+%5BGWC%5D.mp4&amp;tr=udp%3A%2F%2Ftracker.openbittorrent.com%3A80&amp;tr=udp%3A%2F%2Fopen.demonii.com%3A1337&amp;tr=udp%3A%2F%2Ftracker.coppersurfer.tk%3A6969&amp;tr=udp%3A%2F%2Fexodus.desync.com%3A6969","seeders":2,"leechers":0,"uploader":"canc232","files":1,"time":1397484672,"description":"Cosmos A Space Time Odyssey S01E06 HDTV x264 AAC [GWC] \n\n\nSUMMARY :\nA documentary series that explores how we discovered the laws of nature and found our coordinates in space and time. \n\n\nSCREENS : &lt;a href=&quot;\nhttp://i.imgur.com/UmRT6nq.jpg&quot; rel=&quot;nofollow&quot; target=&quot;_NEW&quot;&gt;\nhttp://i.imgur.com/UmRT6nq.jpg&lt;/a&gt; &lt;a href=&quot;\nhttp://i.imgur.com/FInCgnu.jpg&quot; rel=&quot;nofollow&quot; target=&quot;_NEW&quot;&gt;\nhttp://i.imgur.com/FInCgnu.jpg&lt;/a&gt; &lt;a href=&quot;\nhttp://i.imgur.com/Tl4lkK5.jpg&quot; rel=&quot;nofollow&quot; target=&quot;_NEW&quot;&gt;\nhttp://i.imgur.com/Tl4lkK5.jpg&lt;/a&gt;\n\n\nMEDIA INFO :\nGeneral \nFormat : MPEG-4 \nFile size : 188 MiB \nDuration : 43mn 14s \nOverall bit rate mode : Variable \nOverall bit rate : 608 Kbps \n\nVideo \nFormat : AVC \nFormat profile : &lt;a class=&quot;__cf_email__&quot; href=&quot;/cdn-cgi/l/email-protection&quot; data-cfemail=&quot;a0e8c9c7c8e0ec938e90&quot;&gt;[email&amp;#160;protected]&lt;/a&gt;&lt;script cf-hash='f9e31' type=&quot;text/javascript&quot;&gt;\n/* &lt;![CDATA[ */!function(){try{var t=&quot;currentScript&quot;in document?document.currentScript:function(){for(var t=document.getElementsByTagName(&quot;script&quot;),e=t.length;e--;)if(t[e].getAttribute(&quot;cf-hash&quot;))return t[e]}();if(t&amp;&amp;t.previousSibling){var e,r,n,i,c=t.previousSibling,a=c.getAttribute(&quot;data-cfemail&quot;);if(a){for(e=&quot;&quot;,r=parseInt(a.substr(0,2),16),n=2;a.length-n;n+=2)i=parseInt(a.substr(n,2),16)^r,e+=String.fromCharCode(i);e=document.createTextNode(e),c.parentNode.replaceChild(e,c)}}}catch(u){}}();/* ]]&gt; */&lt;/script&gt; \nFormat settings, CABAC : Yes \nFormat settings, ReFrames : 4 frames \nDuration : 43mn 14s \nBit rate : 545 Kbps \nMaximum bit rate : 3 280 Kbps \nWidth : 720 pixels \nHeight : 404 pixels \nDisplay aspect ratio : 16:9 \nFrame rate : 23.976 fps \nStream size : 169 MiB (90%) \nTitle : Cosmos A Space Time Odyssey S01E06 HDTV x264 AAC [GWC] \nWriting library : x264 core\n\nAudio \nFormat : AAC \nFormat profile : HE-AAC / LC \nDuration : 43mn 14s \nBit rate mode : Variable \nBit rate : 60.0 Kbps \nChannel(s) : 2 channels \nSampling rate : 48.0 KHz / 24.0 KHz \nStream size : 18.6 MiB (10%) \nLanguage : English ","torrent":{"xt":"urn:btih:81c966101a2a9a981e60521f27966806d1553c4f","amp;dn":"Cosmos+A+Space+Time+Odyssey+S01E06+HDTV+x264+AAC+%5BGWC%5D.mp4","amp;tr":["udp%3A%2F%2Ftracker.openbittorrent.com%3A80","udp%3A%2F%2Fopen.demonii.com%3A1337","udp%3A%2F%2Ftracker.coppersurfer.tk%3A6969","udp%3A%2F%2Fexodus.desync.com%3A6969"],"infoHash":"81c966101a2a9a981e60521f27966806d1553c4f","infoHashBuffer":{"type":"Buffer","data":[129,201,102,16,26,42,154,152,30,96,82,31,39,150,104,6,209,85,60,79]},"announce":[],"urlList":[]}}